<mxfile host="app.diagrams.net" agent="Mozilla/5.0 (X11; Linux x86_64) AppleWebKit/537.36 (KHTML, like Gecko) Chrome/130.0.0.0 Safari/537.36" version="26.1.0">
  <diagram name="第 1 页" id="Vvg-Fo-2kplNZ5rFatkM">
    <mxGraphModel dx="2191" dy="993" grid="1" gridSize="10" guides="1" tooltips="1" connect="1" arrows="1" fold="1" page="1" pageScale="1" pageWidth="827" pageHeight="1169" math="0" shadow="0">
      <root>
        <mxCell id="0" />
        <mxCell id="1" parent="0" />
        <mxCell id="Az3iGQj9nxM2931kqFIP-1" value="excuter&amp;nbsp;&lt;div&gt;cuda&lt;/div&gt;" style="rounded=1;whiteSpace=wrap;html=1;" vertex="1" parent="1">
          <mxGeometry x="190" y="260" width="120" height="60" as="geometry" />
        </mxCell>
        <mxCell id="Az3iGQj9nxM2931kqFIP-5" value="" style="edgeStyle=orthogonalEdgeStyle;rounded=0;orthogonalLoop=1;jettySize=auto;html=1;" edge="1" parent="1" source="Az3iGQj9nxM2931kqFIP-2" target="Az3iGQj9nxM2931kqFIP-4">
          <mxGeometry relative="1" as="geometry" />
        </mxCell>
        <mxCell id="Az3iGQj9nxM2931kqFIP-2" value="excuter&amp;nbsp;&lt;div&gt;cpu&lt;/div&gt;" style="rounded=1;whiteSpace=wrap;html=1;" vertex="1" parent="1">
          <mxGeometry x="440" y="260" width="120" height="60" as="geometry" />
        </mxCell>
        <mxCell id="Az3iGQj9nxM2931kqFIP-3" value="excuter&amp;nbsp;&lt;div&gt;cuda&lt;/div&gt;" style="rounded=1;whiteSpace=wrap;html=1;" vertex="1" parent="1">
          <mxGeometry x="707" y="260" width="120" height="60" as="geometry" />
        </mxCell>
        <mxCell id="Az3iGQj9nxM2931kqFIP-7" value="" style="edgeStyle=orthogonalEdgeStyle;rounded=0;orthogonalLoop=1;jettySize=auto;html=1;" edge="1" parent="1" source="Az3iGQj9nxM2931kqFIP-4" target="Az3iGQj9nxM2931kqFIP-6">
          <mxGeometry relative="1" as="geometry" />
        </mxCell>
        <mxCell id="Az3iGQj9nxM2931kqFIP-13" style="edgeStyle=orthogonalEdgeStyle;rounded=0;orthogonalLoop=1;jettySize=auto;html=1;entryX=0.5;entryY=0;entryDx=0;entryDy=0;" edge="1" parent="1" source="Az3iGQj9nxM2931kqFIP-4" target="Az3iGQj9nxM2931kqFIP-12">
          <mxGeometry relative="1" as="geometry" />
        </mxCell>
        <mxCell id="Az3iGQj9nxM2931kqFIP-15" style="edgeStyle=orthogonalEdgeStyle;rounded=0;orthogonalLoop=1;jettySize=auto;html=1;entryX=0.5;entryY=0;entryDx=0;entryDy=0;" edge="1" parent="1" source="Az3iGQj9nxM2931kqFIP-4" target="Az3iGQj9nxM2931kqFIP-14">
          <mxGeometry relative="1" as="geometry">
            <Array as="points">
              <mxPoint x="500" y="570" />
              <mxPoint x="150" y="570" />
            </Array>
          </mxGeometry>
        </mxCell>
        <mxCell id="Az3iGQj9nxM2931kqFIP-4" value="class Op{&lt;br&gt;name string;&lt;br&gt;&lt;div style=&quot;&quot;&gt;&lt;span style=&quot;background-color: transparent; color: light-dark(rgb(0, 0, 0), rgb(255, 255, 255));&quot;&gt;vector&amp;lt;string&amp;gt; args;&lt;/span&gt;&lt;/div&gt;&lt;div&gt;vector&amp;lt;string&amp;gt; returns;&lt;/div&gt;&lt;div&gt;bool grad;&lt;/div&gt;&lt;div&gt;&lt;div&gt;&lt;span style=&quot;background-color: transparent; color: light-dark(rgb(0, 0, 0), rgb(255, 255, 255));&quot;&gt;vector&amp;lt;string&amp;gt; args_grad;&lt;/span&gt;&lt;/div&gt;&lt;div&gt;vector&amp;lt;string&amp;gt; returns_grad;&lt;/div&gt;&lt;/div&gt;&lt;br&gt;virusal void forward();&lt;br&gt;virsual void backward();&lt;br&gt;}&lt;div&gt;&lt;br&gt;&lt;/div&gt;" style="rounded=1;whiteSpace=wrap;html=1;align=left;verticalAlign=top;spacingLeft=9;" vertex="1" parent="1">
          <mxGeometry x="410" y="360" width="180" height="170" as="geometry" />
        </mxCell>
        <mxCell id="Az3iGQj9nxM2931kqFIP-9" value="" style="edgeStyle=orthogonalEdgeStyle;rounded=0;orthogonalLoop=1;jettySize=auto;html=1;" edge="1" parent="1" source="Az3iGQj9nxM2931kqFIP-6" target="Az3iGQj9nxM2931kqFIP-8">
          <mxGeometry relative="1" as="geometry" />
        </mxCell>
        <mxCell id="Az3iGQj9nxM2931kqFIP-6" value="&lt;div&gt;&lt;span style=&quot;background-color: transparent; color: light-dark(rgb(0, 0, 0), rgb(255, 255, 255));&quot;&gt;openblas的matmul实现&lt;br&gt;template &amp;lt;T &amp;gt;&lt;/span&gt;&lt;/div&gt;&lt;div&gt;&lt;span style=&quot;background-color: transparent; color: light-dark(rgb(0, 0, 0), rgb(255, 255, 255));&quot;&gt;class Matmul_cblas:Op&lt;/span&gt;&lt;/div&gt;" style="rounded=1;whiteSpace=wrap;html=1;" vertex="1" parent="1">
          <mxGeometry x="260" y="610" width="154" height="60" as="geometry" />
        </mxCell>
        <mxCell id="Az3iGQj9nxM2931kqFIP-11" value="" style="edgeStyle=orthogonalEdgeStyle;rounded=0;orthogonalLoop=1;jettySize=auto;html=1;" edge="1" parent="1" source="Az3iGQj9nxM2931kqFIP-8" target="Az3iGQj9nxM2931kqFIP-10">
          <mxGeometry relative="1" as="geometry" />
        </mxCell>
        <mxCell id="Az3iGQj9nxM2931kqFIP-8" value="cblas实现&lt;br&gt;&lt;br&gt;tensorfunc/elementwise.hpp&lt;div&gt;&lt;br&gt;template&amp;lt;T&amp;gt;&lt;br&gt;void matmul_cblas(const Tensor&amp;lt;T&amp;gt; &amp;amp;a, const Tensor&amp;lt;T&amp;gt; &amp;amp;b, Tensor&amp;lt;T&amp;gt; &amp;amp;c)&lt;br&gt;&lt;br&gt;&lt;/div&gt;" style="rounded=1;whiteSpace=wrap;html=1;align=left;spacingLeft=6;" vertex="1" parent="1">
          <mxGeometry x="-60" y="770" width="420" height="170" as="geometry" />
        </mxCell>
        <mxCell id="Az3iGQj9nxM2931kqFIP-10" value="&lt;div&gt;cblas对double的特化&lt;br&gt;&lt;br&gt;&lt;/div&gt;&lt;div&gt;&lt;div&gt;template &amp;lt;&amp;gt;&lt;/div&gt;&lt;div&gt;&lt;span style=&quot;background-color: transparent;&quot;&gt;void matmul&amp;lt;double&amp;gt;(const Tensor&amp;lt;double&amp;gt; &amp;amp;a, const Tensor&amp;lt;double&amp;gt; &amp;amp;b, Tensor&amp;lt;double&amp;gt; &amp;amp;c)&lt;/span&gt;&lt;/div&gt;&lt;/div&gt;" style="rounded=1;whiteSpace=wrap;html=1;align=left;spacingLeft=6;" vertex="1" parent="1">
          <mxGeometry x="-310" y="990" width="540" height="140" as="geometry" />
        </mxCell>
        <mxCell id="Az3iGQj9nxM2931kqFIP-17" value="" style="edgeStyle=orthogonalEdgeStyle;rounded=0;orthogonalLoop=1;jettySize=auto;html=1;" edge="1" parent="1" source="Az3iGQj9nxM2931kqFIP-12" target="Az3iGQj9nxM2931kqFIP-16">
          <mxGeometry relative="1" as="geometry" />
        </mxCell>
        <mxCell id="Az3iGQj9nxM2931kqFIP-12" value="&lt;div&gt;&lt;span style=&quot;background-color: transparent; color: light-dark(rgb(0, 0, 0), rgb(255, 255, 255));&quot;&gt;某auther a的实现&lt;br&gt;template &amp;lt;T &amp;gt;&lt;/span&gt;&lt;/div&gt;&lt;div&gt;&lt;span style=&quot;background-color: transparent; color: light-dark(rgb(0, 0, 0), rgb(255, 255, 255));&quot;&gt;class Matmul_authora:Op&lt;/span&gt;&lt;/div&gt;" style="rounded=1;whiteSpace=wrap;html=1;" vertex="1" parent="1">
          <mxGeometry x="450" y="610" width="200" height="60" as="geometry" />
        </mxCell>
        <mxCell id="Az3iGQj9nxM2931kqFIP-14" value="&lt;div&gt;&lt;span style=&quot;background-color: transparent; color: light-dark(rgb(0, 0, 0), rgb(255, 255, 255));&quot;&gt;默认的matmul&lt;/span&gt;&lt;/div&gt;&lt;div&gt;&lt;span style=&quot;background-color: transparent; color: light-dark(rgb(0, 0, 0), rgb(255, 255, 255));&quot;&gt;会选其中一个作为默认&lt;br&gt;template &amp;lt;T &amp;gt;&lt;/span&gt;&lt;/div&gt;&lt;div&gt;&lt;span style=&quot;background-color: transparent; color: light-dark(rgb(0, 0, 0), rgb(255, 255, 255));&quot;&gt;class Matmul:Op&lt;/span&gt;&lt;/div&gt;" style="rounded=1;whiteSpace=wrap;html=1;" vertex="1" parent="1">
          <mxGeometry x="73" y="610" width="154" height="60" as="geometry" />
        </mxCell>
        <mxCell id="Az3iGQj9nxM2931kqFIP-19" value="" style="edgeStyle=orthogonalEdgeStyle;rounded=0;orthogonalLoop=1;jettySize=auto;html=1;" edge="1" parent="1" source="Az3iGQj9nxM2931kqFIP-16" target="Az3iGQj9nxM2931kqFIP-18">
          <mxGeometry relative="1" as="geometry" />
        </mxCell>
        <mxCell id="Az3iGQj9nxM2931kqFIP-16" value="&lt;span style=&quot;background-color: transparent;&quot;&gt;&lt;font color=&quot;rgba(0, 0, 0, 0)&quot;&gt;某auther a的实现&lt;/font&gt;&lt;br&gt;&lt;br&gt;&lt;div style=&quot;&quot;&gt;tensorfunc/elementwise.hpp&lt;/div&gt;&lt;div style=&quot;&quot;&gt;&lt;br&gt;&lt;/div&gt;&lt;div style=&quot;&quot;&gt;template&amp;lt;T&amp;gt;&lt;/div&gt;&lt;div style=&quot;&quot;&gt;void matmul_authora(const Tensor&amp;lt;T&amp;gt; &amp;amp;a, const Tensor&amp;lt;T&amp;gt; &amp;amp;b, Tensor&amp;lt;T&amp;gt; &amp;amp;c)&lt;/div&gt;&lt;div style=&quot;color: light-dark(rgb(0, 0, 0), rgb(255, 255, 255));&quot;&gt;&lt;br&gt;&lt;/div&gt;&lt;/span&gt;" style="rounded=1;whiteSpace=wrap;html=1;" vertex="1" parent="1">
          <mxGeometry x="430" y="770" width="460" height="170" as="geometry" />
        </mxCell>
        <mxCell id="Az3iGQj9nxM2931kqFIP-18" value="&lt;span style=&quot;background-color: transparent;&quot;&gt;&lt;div style=&quot;&quot;&gt;&lt;div style=&quot;color: light-dark(rgb(0, 0, 0), rgb(255, 255, 255));&quot;&gt;authora对double的特化&lt;br&gt;&lt;br&gt;&lt;/div&gt;&lt;div style=&quot;&quot;&gt;&lt;div style=&quot;&quot;&gt;template &amp;lt;&amp;gt;&lt;/div&gt;&lt;div style=&quot;&quot;&gt;&amp;nbsp; void matmul_authora&amp;lt;double&amp;gt;(const Tensor&amp;lt;double&amp;gt; &amp;amp;a, const Tensor&amp;lt;double&amp;gt; &amp;amp;b, Tensor&amp;lt;double&amp;gt; &amp;amp;c)&lt;/div&gt;&lt;/div&gt;&lt;/div&gt;&lt;/span&gt;" style="rounded=1;whiteSpace=wrap;html=1;align=left;" vertex="1" parent="1">
          <mxGeometry x="350" y="990" width="620" height="140" as="geometry" />
        </mxCell>
        <mxCell id="Az3iGQj9nxM2931kqFIP-20" value="tensorfunc&amp;lt;T&amp;gt;" style="text;html=1;align=center;verticalAlign=middle;whiteSpace=wrap;rounded=0;fontSize=21;" vertex="1" parent="1">
          <mxGeometry x="-270" y="830" width="130" height="30" as="geometry" />
        </mxCell>
        <mxCell id="Az3iGQj9nxM2931kqFIP-21" value="tensorfunc 特化" style="text;html=1;align=center;verticalAlign=middle;whiteSpace=wrap;rounded=0;fontSize=21;" vertex="1" parent="1">
          <mxGeometry x="-440" y="1045" width="110" height="30" as="geometry" />
        </mxCell>
        <mxCell id="Az3iGQj9nxM2931kqFIP-22" value="Op" style="text;html=1;align=center;verticalAlign=middle;whiteSpace=wrap;rounded=0;fontSize=21;" vertex="1" parent="1">
          <mxGeometry x="-140" y="625" width="130" height="30" as="geometry" />
        </mxCell>
      </root>
    </mxGraphModel>
  </diagram>
</mxfile>
